<svg xmlns="http://www.w3.org/2000/svg" width="1000" height="260" viewBox="0 0 1000 260" role="img" aria-labelledby="t07 d07"><title id="t07">Chapter 07: Automations</title><desc id="d07">Studio-themed header for Chapter 07.</desc>
<defs>
<linearGradient id="bg07" x1="0" y1="0" x2="1" y2="1"><stop offset="0" stop-color="#064e3b"/><stop offset="1" stop-color="#0a7756"/></linearGradient>
<radialGradient id="gl07" cx="0.86" cy="0.16" r="0.7"><stop offset="0" stop-color="#34c494" stop-opacity="0.34"/><stop offset="1" stop-color="#34c494" stop-opacity="0"/></radialGradient>
<clipPath id="cp07"><rect width="1000" height="260" rx="24"/></clipPath>
</defs>
<g clip-path="url(#cp07)">
<rect width="1000" height="260" fill="url(#bg07)"/>
<rect width="1000" height="260" fill="url(#gl07)"/>
<rect width="1000" height="260" rx="24" fill="none" stroke="#a7f3d0" stroke-opacity="0.10" stroke-width="2"/>
<path d="M28 230 L44 217 L60 199 L76 191 L92 197 L108 210 L124 217 L140 217 L156 215 L172 213 L188 207 L204 200 L220 199 L236 211 L252 228 L268 236 L284 228 L300 212 L316 202 L332 203 L348 208 L364 212 L380 216 L396 220 L412 219 L428 210 L444 195 L460 189 L476 198 L492 216 L508 227 L524 226 L540 217 L556 211 L572 208 L588 208 L604 208 L620 215 L636 227 L652 231 L668 222 L684 204 L700 192 L716 195 L732 207 L748 216 L764 218 L780 216 L796 213 L812 209 L828 201 L844 198 L860 207 L876 224 L892 235 L908 231 L924 216 L940 204 L956 202 L972 207" fill="none" stroke="#a7f3d0" stroke-opacity="0.16" stroke-width="2.5" stroke-linecap="round"/>
<g><rect x="824" y="122" width="10" height="88" rx="5" fill="#a7f3d0" opacity="0.45"/><rect x="841" y="80" width="10" height="130" rx="5" fill="#fbbf24" opacity="0.85"/><rect x="841" y="71" width="10" height="5" rx="2.5" fill="#fbbf24"/><rect x="858" y="87" width="10" height="123" rx="5" fill="#a7f3d0" opacity="0.45"/><rect x="875" y="114" width="10" height="96" rx="5" fill="#a7f3d0" opacity="0.45"/><rect x="892" y="141" width="10" height="69" rx="5" fill="#fbbf24" opacity="0.85"/><rect x="892" y="132" width="10" height="5" rx="2.5" fill="#fbbf24"/><rect x="909" y="158" width="10" height="52" rx="5" fill="#a7f3d0" opacity="0.45"/><rect x="926" y="135" width="10" height="75" rx="5" fill="#a7f3d0" opacity="0.45"/></g>
<rect x="58" y="82" width="6" height="108" rx="3" fill="#fbbf24"/>
<g font-family="Helvetica, Arial, sans-serif">
<circle cx="96" cy="74" r="6" fill="#fbbf24"/>
<text x="112" y="80" fill="#a7f3d0" font-size="21" font-weight="700" letter-spacing="3">CHAPTER 07</text>
<text x="84" y="146" fill="#ffffff" font-size="56" font-weight="800">Automations</text>
<text x="86" y="186" fill="#a7f3d0" font-size="15" font-weight="600" letter-spacing="3" opacity="0.62">GITHUB COPILOT APP</text>
</g>
</g></svg>